<svg width="46" height="46" viewBox="0 0 46 46" fill="none" xmlns="http://www.w3.org/2000/svg">
<path d="M40.7288 30.0913V11.4757C40.7288 8.0427 37.9566 5.27051 34.5236 5.27051H11.4757C8.0427 5.27051 5.27051 8.0427 5.27051 11.4757V34.5236C5.27051 37.9566 8.0427 40.7288 11.4757 40.7288H30.0913L40.7288 30.0913ZM11.4757 37.183C10.009 37.183 8.81634 35.9903 8.81634 34.5236V11.4757C8.81634 10.009 10.009 8.81634 11.4757 8.81634H34.5236C35.9903 8.81634 37.183 10.009 37.183 11.4757V28.3184H34.5236C31.0906 28.3184 28.3184 31.0906 28.3184 34.5236V37.183H11.4757ZM19.0348 19.067C18.5674 17.423 16.8589 16.456 15.215 16.9234C13.571 17.3908 12.6039 19.0993 13.0713 20.7594C13.2003 21.2106 13.4259 21.6136 13.716 21.952L19.0993 20.437C19.1798 19.9857 19.1637 19.5183 19.0348 19.067ZM30.1236 15.9402C29.6723 14.2963 27.9477 13.3292 26.3037 13.7966C24.6598 14.264 23.6927 15.9725 24.1601 17.6326C24.2891 18.0839 24.5147 18.4868 24.8048 18.8253L30.188 17.3102C30.2686 16.8589 30.2525 16.3915 30.1236 15.9402ZM31.7031 21.4846L14.6186 26.3037C16.9234 29.3499 20.9205 30.8327 24.8048 29.7368C28.6891 28.6408 31.3163 25.2722 31.7031 21.4846Z" fill="#777777"/>
</svg>
