<svg width="21" height="24" viewBox="0 0 21 24" fill="none" xmlns="http://www.w3.org/2000/svg">
<path d="M0 20.8714V9.04286C0 8.62667 0.0931872 8.23238 0.279562 7.86C0.465937 7.48762 0.72275 7.18095 1.05 6.94L8.925 1.02571C9.38437 0.675238 9.90937 0.5 10.5 0.5C11.0906 0.5 11.6156 0.675238 12.075 1.02571L19.95 6.94C20.2781 7.18095 20.5354 7.48762 20.7217 7.86C20.9081 8.23238 21.0009 8.62667 21 9.04286V20.8714C21 21.5943 20.7427 22.2133 20.2282 22.7285C19.7137 23.2437 19.096 23.5009 18.375 23.5H14.4375C14.0656 23.5 13.7541 23.3738 13.503 23.1215C13.2519 22.8691 13.1259 22.5572 13.125 22.1857V15.6143C13.125 15.2419 12.999 14.93 12.747 14.6785C12.495 14.427 12.1835 14.3009 11.8125 14.3H9.1875C8.81562 14.3 8.50412 14.4262 8.253 14.6785C8.00187 14.9309 7.87587 15.2428 7.875 15.6143V22.1857C7.875 22.5581 7.749 22.8705 7.497 23.1228C7.245 23.3751 6.9335 23.5009 6.5625 23.5H2.625C1.90312 23.5 1.28537 23.2428 0.77175 22.7285C0.258125 22.2142 0.000875 21.5952 0 20.8714Z" fill="#9D9D9D"/>
</svg>
