<svg width="28" height="24" viewBox="0 0 28 24" fill="none" xmlns="http://www.w3.org/2000/svg">
<path d="M16 0C12.8174 0 9.76515 1.26428 7.51472 3.51472C5.26428 5.76515 4 8.8174 4 12H0L5.18667 17.1867L5.28 17.3733L10.6667 12H6.66667C6.66667 6.84 10.84 2.66667 16 2.66667C21.16 2.66667 25.3333 6.84 25.3333 12C25.3333 17.16 21.16 21.3333 16 21.3333C13.4267 21.3333 11.0933 20.28 9.41333 18.5867L7.52 20.48C8.63104 21.5976 9.95244 22.484 11.4079 23.0882C12.8634 23.6924 14.4241 24.0022 16 24C19.1826 24 22.2348 22.7357 24.4853 20.4853C26.7357 18.2348 28 15.1826 28 12C28 8.8174 26.7357 5.76515 24.4853 3.51472C22.2348 1.26428 19.1826 4.74244e-08 16 0ZM14.6667 6.66666V13.3333L20.3333 16.6933L21.36 14.9733L16.6667 12.1867V6.66666H14.6667Z" fill="#9D9D9D"/>
</svg>
