<svg width="49" height="49" viewBox="0 0 49 49" fill="none" xmlns="http://www.w3.org/2000/svg">
<path d="M24.4998 24.5003C22.254 24.5003 20.3314 23.7007 18.7321 22.1014C17.1328 20.5021 16.3332 18.5795 16.3332 16.3337C16.3332 14.0878 17.1328 12.1653 18.7321 10.566C20.3314 8.96665 22.254 8.16699 24.4998 8.16699C26.7457 8.16699 28.6682 8.96665 30.2675 10.566C31.8668 12.1653 32.6665 14.0878 32.6665 16.3337C32.6665 18.5795 31.8668 20.5021 30.2675 22.1014C28.6682 23.7007 26.7457 24.5003 24.4998 24.5003ZM8.1665 40.8337V35.117C8.1665 33.96 8.46425 32.8967 9.05973 31.9269C9.65522 30.9571 10.4464 30.217 11.4332 29.7066C13.5429 28.6517 15.6866 27.8606 17.8644 27.3331C20.0422 26.8057 22.254 26.542 24.4998 26.542C26.7457 26.542 28.9575 26.8057 31.1353 27.3331C33.313 27.8606 35.4568 28.6517 37.5665 29.7066C38.5533 30.217 39.3445 30.9571 39.9399 31.9269C40.5354 32.8967 40.8332 33.96 40.8332 35.117V40.8337H8.1665ZM12.2498 36.7503H36.7498V35.117C36.7498 34.7427 36.6563 34.4024 36.4691 34.0962C36.282 33.7899 36.0353 33.5517 35.729 33.3816C33.8915 32.4628 32.037 31.7738 30.1655 31.3144C28.2939 30.855 26.4054 30.6253 24.4998 30.6253C22.5943 30.6253 20.7057 30.855 18.8342 31.3144C16.9627 31.7738 15.1082 32.4628 13.2707 33.3816C12.9644 33.5517 12.7177 33.7899 12.5306 34.0962C12.3434 34.4024 12.2498 34.7427 12.2498 35.117V36.7503ZM24.4998 20.417C25.6228 20.417 26.584 20.0172 27.3837 19.2175C28.1833 18.4179 28.5832 17.4566 28.5832 16.3337C28.5832 15.2107 28.1833 14.2495 27.3837 13.4498C26.584 12.6502 25.6228 12.2503 24.4998 12.2503C23.3769 12.2503 22.4156 12.6502 21.616 13.4498C20.8163 14.2495 20.4165 15.2107 20.4165 16.3337C20.4165 17.4566 20.8163 18.4179 21.616 19.2175C22.4156 20.0172 23.3769 20.417 24.4998 20.417Z" fill="#777777"/>
</svg>
