<svg width="25" height="24" viewBox="0 0 25 24" fill="none" xmlns="http://www.w3.org/2000/svg">
<path d="M2 20.0003C2 18.5858 2.5619 17.2293 3.5621 16.2291C4.56229 15.2289 5.91884 14.667 7.33333 14.667H18C19.4145 14.667 20.771 15.2289 21.7712 16.2291C22.7714 17.2293 23.3333 18.5858 23.3333 20.0003C23.3333 20.7076 23.0524 21.3858 22.5523 21.8859C22.0522 22.386 21.3739 22.667 20.6667 22.667H4.66667C3.95942 22.667 3.28114 22.386 2.78105 21.8859C2.28095 21.3858 2 20.7076 2 20.0003Z" stroke="#9D9D9D" stroke-width="2.5" stroke-linejoin="round"/>
<path d="M12.6665 9.33349C14.8756 9.33349 16.6665 7.54263 16.6665 5.33349C16.6665 3.12436 14.8756 1.3335 12.6665 1.3335C10.4574 1.3335 8.6665 3.12436 8.6665 5.33349C8.6665 7.54263 10.4574 9.33349 12.6665 9.33349Z" stroke="#9D9D9D" stroke-width="2.5"/>
</svg>
