<svg width="65" height="64" viewBox="0 0 65 64" fill="none" xmlns="http://www.w3.org/2000/svg">
<rect x="0.5" width="64" height="64" rx="32" fill="white"/>
<circle cx="32.5" cy="32" r="26" fill="#304FFF"/>
<path d="M42.4867 33.4374L38.4131 32.2733C36.5787 31.7562 34.9076 30.7768 33.5599 29.4291C32.2122 28.0814 31.2329 26.4104 30.7157 24.5759L29.5516 20.5023C29.4931 20.3598 29.3935 20.2379 29.2655 20.1521C29.1375 20.0663 28.9869 20.0205 28.8328 20.0205C28.6787 20.0205 28.5281 20.0663 28.4001 20.1521C28.2722 20.2379 28.1726 20.3598 28.114 20.5023L26.9499 24.5759C26.4327 26.4104 25.4534 28.0814 24.1057 29.4291C22.758 30.7768 21.087 31.7562 19.2525 32.2733L15.1789 33.4374C15.0225 33.4818 14.8848 33.576 14.7868 33.7058C14.6888 33.8355 14.6357 33.9936 14.6357 34.1562C14.6357 34.3188 14.6888 34.477 14.7868 34.6067C14.8848 34.7364 15.0225 34.8306 15.1789 34.875L19.2525 36.0391C21.087 36.5563 22.758 37.5356 24.1057 38.8833C25.4534 40.231 26.4327 41.9021 26.9499 43.7365L28.114 47.8101C28.1584 47.9665 28.2526 48.1042 28.3823 48.2022C28.5121 48.3003 28.6702 48.3533 28.8328 48.3533C28.9954 48.3533 29.1536 48.3003 29.2833 48.2022C29.413 48.1042 29.5072 47.9665 29.5516 47.8101L30.7157 43.7365C31.2329 41.9021 32.2122 40.231 33.5599 38.8833C34.9076 37.5356 36.5787 36.5563 38.4131 36.0391L42.4867 34.875C42.6431 34.8306 42.7808 34.7364 42.8788 34.6067C42.9768 34.477 43.0299 34.3188 43.0299 34.1562C43.0299 33.9936 42.9768 33.8355 42.8788 33.7058C42.7808 33.576 42.6431 33.4818 42.4867 33.4374Z" fill="white"/>
<path d="M49.7416 21.9613L47.7317 21.3857C46.8266 21.13 46.0021 20.6458 45.3371 19.9794C44.6722 19.313 44.189 18.4867 43.9338 17.5796L43.3594 15.5654C43.3305 15.4949 43.2814 15.4346 43.2183 15.3922C43.1551 15.3498 43.0808 15.3271 43.0048 15.3271C42.9288 15.3271 42.8545 15.3498 42.7913 15.3922C42.7282 15.4346 42.679 15.4949 42.6501 15.5654L42.0758 17.5796C41.8206 18.4867 41.3374 19.313 40.6725 19.9794C40.0075 20.6458 39.183 21.13 38.2779 21.3857L36.268 21.9613C36.1908 21.9833 36.1229 22.0299 36.0745 22.094C36.0262 22.1582 36 22.2364 36 22.3168C36 22.3972 36.0262 22.4754 36.0745 22.5395C36.1229 22.6036 36.1908 22.6502 36.268 22.6722L38.2779 23.2478C39.183 23.5035 40.0075 23.9877 40.6725 24.6541C41.3374 25.3205 41.8206 26.1468 42.0758 27.0539L42.6501 29.0681C42.672 29.1455 42.7185 29.2135 42.7825 29.262C42.8465 29.3105 42.9246 29.3367 43.0048 29.3367C43.085 29.3367 43.163 29.3105 43.227 29.262C43.291 29.2135 43.3375 29.1455 43.3594 29.0681L43.9338 27.0539C44.189 26.1468 44.6722 25.3205 45.3371 24.6541C46.0021 23.9877 46.8266 23.5035 47.7317 23.2478L49.7416 22.6722C49.8187 22.6502 49.8867 22.6036 49.935 22.5395C49.9834 22.4754 50.0096 22.3972 50.0096 22.3168C50.0096 22.2364 49.9834 22.1582 49.935 22.094C49.8867 22.0299 49.8187 21.9833 49.7416 21.9613Z" fill="white"/>
</svg>
